<svg xmlns="http://www.w3.org/2000/svg" width="1200" height="630" viewBox="0 0 1200 630" role="img" aria-labelledby="title desc">
  <title id="title">Claude AI Blog</title>
  <desc id="desc">Claude AI Blog homepage preview image.</desc>
  <defs>
    <linearGradient id="bg" x1="0%" y1="0%" x2="100%" y2="100%">
      <stop offset="0%" stop-color="#1c1410" />
      <stop offset="100%" stop-color="#0f0c0a" />
    </linearGradient>
    <linearGradient id="panel" x1="0%" y1="0%" x2="100%" y2="100%">
      <stop offset="0%" stop-color="#2b211b" stop-opacity="0.95" />
      <stop offset="100%" stop-color="#171210" stop-opacity="0.98" />
    </linearGradient>
  </defs>
  <rect width="1200" height="630" fill="url(#bg)" />
  <rect x="54" y="54" width="1092" height="522" rx="34" fill="url(#panel)" stroke="#3a2a22" />
  <g transform="translate(108 116)" fill="#f4ede7">
    <rect x="74" y="0" width="28" height="14" />
    <rect x="67" y="19" width="42" height="14" />
    <rect x="60" y="38" width="56" height="14" />
    <rect x="53" y="57" width="70" height="14" />
    <rect x="46" y="76" width="84" height="14" />
    <rect x="39" y="95" width="28" height="14" />
    <rect x="109" y="95" width="28" height="14" />
    <rect x="39" y="114" width="28" height="14" />
    <rect x="109" y="114" width="28" height="14" />
    <rect x="46" y="133" width="84" height="14" />
    <rect x="60" y="152" width="14" height="14" />
    <rect x="102" y="152" width="14" height="14" />
  </g>
  <text x="284" y="180" fill="#f4ede7" font-size="28" font-family="Georgia, 'Times New Roman', serif" letter-spacing="2">CLAUDEAIBLOG.COM</text>
  <text x="284" y="285" fill="#fff7f0" font-size="74" font-family="Georgia, 'Times New Roman', serif">Claude AI Blog</text>
  <text x="284" y="360" fill="#e7d7ca" font-size="34" font-family="Arial, Helvetica, sans-serif">Claude AI news, guides, and product notes that are actually readable.</text>
  <text x="284" y="420" fill="#c9b6a7" font-size="28" font-family="Arial, Helvetica, sans-serif">Track model launches, Claude Code, Projects, Artifacts, and product changes.</text>
  <g transform="translate(284 474)">
    <rect x="0" y="0" width="198" height="54" rx="27" fill="#f7efe9" />
    <text x="99" y="35" text-anchor="middle" fill="#120f0d" font-size="24" font-family="Arial, Helvetica, sans-serif">Get updates</text>
  </g>
</svg>
